<svg xmlns="http://www.w3.org/2000/svg" viewBox="0 0 800.1 800"><defs><linearGradient id="a" x1="157.688" x2="157.688" y1="582.173" y2="1382.173" gradientTransform="translate(242.362 -582.173)" gradientUnits="userSpaceOnUse"><stop offset="0" stop-color="#18bffb"/><stop offset="1" stop-color="#2072f3"/></linearGradient></defs><path d="M638.4 0H161.6A161.535 161.535 0 0 0 0 161.6v476.9A161.514 161.514 0 0 0 161.6 800h476.9a161.6 161.6 0 0 0 161.6-161.6V161.6A161.684 161.684 0 0 0 638.4 0Z" style="fill:url(#a)"/><path d="m396.6 183.8 16.2-28a36.466 36.466 0 1 1 63.2 36.4L319.9 462.4h112.9c36.6 0 57.1 43 41.2 72.8H143a36.4 36.4 0 1 1 0-72.8h92.8l118.8-205.9-37.1-64.4a36.466 36.466 0 0 1 63.2-36.4l15.9 28.1ZM256.2 572.7l-35 60.7A36.466 36.466 0 0 1 158 597l26-45c29.4-9.1 53.3-2.1 72.2 20.7Zm301.4-110.1h94.7a36.4 36.4 0 1 1 0 72.8h-52.6l35.5 61.6a36.466 36.466 0 0 1-63.2 36.4q-89.7-155.55-134.5-233c-30.5-52.6-8.7-105.4 12.8-123.3q35.85 61.5 107.3 185.5Z" style="fill:#fff"/></svg>